<svg version="1.1" viewBox="0 0 112 133" xmlns="http://www.w3.org/2000/svg"><g transform="matrix(1.07 0 0 1.07 -2.52 -101)" stroke-width="2.35"><g transform="matrix(-1 0 0 1 114 0)" stroke-width="2.35"><g fill="#fff" stroke="#000" stroke-width="2.35"><path d="m49.1 143c-38.8 3.3-28.7 43.7 0 44.4 38.8-3.3 28.7-43.7 0-44.4z" stop-color="#000000" style="paint-order:markers fill stroke"/><path d="m51.6 143c-12-2.63-20.5 7.43-20.1-8.78 0.118-5.03 0.158-10.1 0.158-15.1 0-4.92-2.83-8.07-5.91-8.05-2.89 0.0175-5.99 2.84-7.15 9.62-5.7 33.3 2.13e-4 34.6-2.83 41.2-3.28 7.63-3.37 16.8 1.89 21.8 17.9 17.2 20.5 8 18.6 0-0.937-4.06-8.39-9.7-8.39-9.7" stop-color="#000000" style="paint-order:markers fill stroke"/><path d="m40.9 163c-2.65 4.05-3.55 15.6-4.09 24.8-2.44 14.9 15.7 12.5 14.9 3.77-0.219-2.43 2.48-4.11 6.35-3.28 7.46 2 10.9-2.55 12.5 2.56 3.43 9.72 15.8 5.86 16-0.779l0.232-9.33" stop-color="#000000" style="paint-order:markers fill stroke"/><path d="m60.7 131c-4.52 0.535-10.1-1.78-13.3 1.32-2.92 2.83-1.3 7.82-1.59 12.1-2.18 5.42-1.94 9.31-1.94 15 0 13.3 11.3 24 25.3 24h6.01c14 0 25.3-10.7 25.3-24 0.174-5.09-0.133-10.8-1.94-15-0.285-4.25 1.33-9.23-1.59-12.1-3.19-3.1-8.75-0.782-13.3-1.32-6.73-1.88-16.6-2.15-23.1 0z" stop-color="#000000" style="paint-order:markers fill stroke"/><path d="m69.9 162a5.19 5.19 0 0 1-5.19 5.19 5.19 5.19 0 0 1-5.19-5.19 5.19 5.19 0 0 1 5.19-5.19 5.19 5.19 0 0 1 5.19 5.19z" stop-color="#000000" style="paint-order:markers fill stroke"/><path d="m88.5 162a5.19 5.19 0 0 1-5.19 5.19 5.19 5.19 0 0 1-5.19-5.19 5.19 5.19 0 0 1 5.19-5.19 5.19 5.19 0 0 1 5.19 5.19z" stop-color="#000000" style="paint-order:markers fill stroke"/><path d="m88.5 162a5.19 5.19 0 0 1-5.19 5.19 5.19 5.19 0 0 1-5.19-5.19 5.19 5.19 0 0 1 5.19-5.19 5.19 5.19 0 0 1 5.19 5.19z" stop-color="#000000" style="paint-order:markers fill stroke"/><path d="m53.7 133c-2.87 0-5.19 2.32-5.19 5.19 0 2.49 0.713 3.37 2.07 3.56 2.84 0.391 6.23-3.12 6.18-5.98-0.0236-1.37-0.493-2.77-3.06-2.77zm37.2 0c-2.6 0-3.05 1.46-3.06 2.86-0.0317 2.82 3.25 6.24 6.04 5.9 1.39-0.17 2.21-1.03 2.21-3.57 0-2.87-2.32-5.19-5.19-5.19z" style="paint-order:markers fill stroke"/></g><g stroke="#000" stroke-width="2.35"><path d="m69.1 161a4.36 4.34 0 0 1-4.36 4.34 4.36 4.34 0 0 1-4.36-4.34 4.36 4.34 0 0 1 4.36-4.34 4.36 4.34 0 0 1 4.36 4.34z" stop-color="#000000" style="paint-order:markers fill stroke"/><path d="m87.7 161a4.36 4.34 0 0 1-4.36 4.34 4.36 4.34 0 0 1-4.36-4.34 4.36 4.34 0 0 1 4.36-4.34 4.36 4.34 0 0 1 4.36 4.34z" stop-color="#000000" style="paint-order:markers fill stroke"/><path d="m75.9 167a0.549 0.504 0 0 1-0.549 0.504 0.549 0.504 0 0 1-0.549-0.504 0.549 0.504 0 0 1 0.549-0.504 0.549 0.504 0 0 1 0.549 0.504z" stop-color="#000000" style="paint-order:markers fill stroke"/><path d="m73.9 167a0.549 0.504 0 0 1-0.549 0.504 0.549 0.504 0 0 1-0.549-0.504 0.549 0.504 0 0 1 0.549-0.504 0.549 0.504 0 0 1 0.549 0.504z" stop-color="#000000" style="paint-order:markers fill stroke"/></g><path d="m60.9 159a5.19 5.19 0 0 0-0.868 1.31 4.36 0.777 0 0 0 2.52-0.703 4.36 0.777 0 0 0-1.66-0.608zm18.6 0a5.19 5.19 0 0 0-0.868 1.31 4.36 0.777 0 0 0 2.52-0.703 4.36 0.777 0 0 0-1.66-0.608z" fill="#fff" style="paint-order:markers fill stroke"/><g transform="matrix(.522 0 0 .581 32.9 71.2)" fill="none" stroke="#000" stroke-linecap="round" stroke-width="4.26"><path d="m98.8 170c6.38-0.326 12.6-2.23 16.7-6.62" stop-color="#000000" style="paint-order:markers fill stroke"/><path d="m98.8 170c5.58 4.98 9.74 6.3 16.7 6.61" stop-color="#000000" style="paint-order:markers fill stroke"/><path d="m98.8 170c5.68 2.91 12 4.35 17.8 2.64" stop-color="#000000" style="paint-order:markers fill stroke"/><path d="m61.6 170c-10.5 1.03-12.9-2.51-16.7-6.62" stop-color="#000000" style="paint-order:markers fill stroke"/><path d="m61.6 170c-3.7 4.75-5.81 6.28-11.3 6.65" stop-color="#000000" style="paint-order:markers fill stroke"/><path d="m61.6 170c-6.34 1.61-12.6 1.78-18-1.26" stop-color="#000000" style="paint-order:markers fill stroke"/><path d="m61.6 170c-5.41 3.68-11.2 5.97-17.3 4.94" stop-color="#000000" style="paint-order:markers fill stroke"/><path d="m47.1 139c2.12-3.68 4.39-5.97 6.77-4.94" stop-color="#000000" style="paint-order:markers fill stroke"/><path d="m109 140c-2.12-3.68-4.39-5.97-6.77-4.94" stop-color="#000000" style="paint-order:markers fill stroke"/></g><path d="m78.4 172c-2.78 3.76-6.64 1.64-9.33-0.262" fill="none" stroke="#000" stroke-width="2.35" style="font-variation-settings:normal;paint-order:markers fill stroke"/></g></g></svg>
