<svg version="1.1" viewBox="0 0 112 133" xmlns="http://www.w3.org/2000/svg"><g fill="#fff" stroke="#000" stroke-linecap="round" stroke-linejoin="bevel"><g stroke-width="2.03"><path d="m102 103c-2.15-0.297-6.39-1.79-5.51-3.74 0.872-1.95-1.72-3.31-0.818-5.63 0.476-1.22 2.88-2.2 1.82-3.2-1.91-1.83 0.561-3.35 1.59-3.2 1.88 0.274 4.25-0.733 6.6-0.5 2.35 0.233 5.08 1.3 7.27 2.04 2.18 0.738 4.75 0.293 5.84 2.32 1.1 2.03 0.25 5.37-1.51 7.38-1.76 2-6.38 2.63-8.46 2.63-2.08 1e-3 -4.68 2.21-6.83 1.91z" style="paint-order:markers fill stroke"/><path d="m99.6 98.4a1.13 0.377 0.507 0 1 1.13 0.387 1.13 0.377 0.507 0 1-1.14 0.367 1.13 0.377 0.507 0 1-1.13-0.387 1.13 0.377 0.507 0 1 1.14-0.367z" style="paint-order:markers fill stroke"/><path d="m98.7 95.5a1.13 0.226 0.507 0 1 1.13 0.236 1.13 0.226 0.507 0 1-1.13 0.216 1.13 0.226 0.507 0 1-1.13-0.236 1.13 0.226 0.507 0 1 1.13-0.216z" style="paint-order:markers fill stroke"/></g><path d="m104 90.8c0.967 0.0086 0.136 1.04 1.72 3.05 1.04 1.32-0.811 3.03-1.78 3.02-0.967-0.0086-1.74-1.38-1.72-3.05 0.0149-1.68 0.811-3.03 1.78-3.02z" stroke-width="1.92" style="paint-order:markers fill stroke"/><g stroke-width="2.03"><path d="m98.7 92.6a1.13 0.226 0.507 0 1 1.13 0.236 1.13 0.226 0.507 0 1-1.13 0.216 1.13 0.226 0.507 0 1-1.13-0.236 1.13 0.226 0.507 0 1 1.13-0.216z" style="paint-order:markers fill stroke"/><path d="m100 89.8a1.13 0.226 0.507 0 1 1.13 0.236 1.13 0.226 0.507 0 1-1.13 0.216 1.13 0.226 0.507 0 1-1.13-0.236 1.13 0.226 0.507 0 1 1.13-0.216z" style="paint-order:markers fill stroke"/><path d="m102 62.8c-2.15-0.297-6.39-1.79-5.51-3.74 0.872-1.95-1.72-3.31-0.818-5.63 0.476-1.22 2.88-2.2 1.82-3.2-1.91-1.83 0.561-3.35 1.59-3.2 1.88 0.274 4.25-0.733 6.6-0.5 2.35 0.233 5.08 1.3 7.27 2.04 2.18 0.738 4.75 0.293 5.84 2.32 1.1 2.03 0.25 5.37-1.51 7.38-1.76 2-6.38 2.63-8.46 2.63-2.08 1e-3 -4.68 2.21-6.83 1.91z" style="paint-order:markers fill stroke"/><path d="m101 58.6a1.13 0.377 0.507 0 1 1.13 0.387 1.13 0.377 0.507 0 1-1.14 0.367 1.13 0.377 0.507 0 1-1.13-0.387 1.13 0.377 0.507 0 1 1.14-0.367z" style="paint-order:markers fill stroke"/><path d="m100 55.7a1.13 0.226 0.507 0 1 1.13 0.236 1.13 0.226 0.507 0 1-1.13 0.216 1.13 0.226 0.507 0 1-1.13-0.236 1.13 0.226 0.507 0 1 1.13-0.216z" style="paint-order:markers fill stroke"/></g><path d="m106 50.9c0.967 0.0086 0.136 1.04 1.72 3.05 1.04 1.32-0.811 3.03-1.78 3.02-0.967-0.0086-1.74-1.38-1.72-3.05 0.0149-1.68 0.811-3.03 1.78-3.02z" stroke-width="1.92" style="paint-order:markers fill stroke"/><path d="m100 52.8a1.13 0.226 0.507 0 1 1.13 0.236 1.13 0.226 0.507 0 1-1.13 0.216 1.13 0.226 0.507 0 1-1.13-0.236 1.13 0.226 0.507 0 1 1.13-0.216z" stroke-width="2.03" style="paint-order:markers fill stroke"/><path d="m101 50a1.13 0.226 0.507 0 1 1.13 0.236 1.13 0.226 0.507 0 1-1.13 0.216 1.13 0.226 0.507 0 1-1.13-0.236 1.13 0.226 0.507 0 1 1.13-0.216z" stroke-width="2.03" style="paint-order:markers fill stroke"/></g></svg>
