<svg version="1.1" viewBox="0 0 112 133" xmlns="http://www.w3.org/2000/svg"><g transform="matrix(1.02 0 0 1 -8.82 -.634)" fill="#fff" stroke="#000" stroke-linecap="round" stroke-linejoin="bevel" stroke-width="2.03"><g transform="translate(-41.1,-7.21)"><path d="m102 103c-2.15-0.297-6.39-1.79-5.51-3.74 0.872-1.95-1.72-3.31-0.818-5.63 0.476-1.22 2.88-2.2 1.82-3.2-1.91-1.83 0.561-3.35 1.59-3.2 1.88 0.274 4.25-0.733 6.6-0.5s5.08 1.3 7.27 2.04c2.18 0.738 49.2 5.59 50.3 7.62s0.25 5.37-1.51 7.38c-1.76 2-50.8-2.67-52.9-2.67-2.08 1e-3 -4.68 2.21-6.83 1.91z" style="paint-order:markers fill stroke"/><path d="m98.7 98.5a1.13 0.377 0.507 0 1 1.13 0.387 1.13 0.377 0.507 0 1-1.14 0.367 1.13 0.377 0.507 0 1-1.13-0.387 1.13 0.377 0.507 0 1 1.14-0.367z" style="paint-order:markers fill stroke"/><path d="m97.8 95.6a1.13 0.226 0.507 0 1 1.13 0.236 1.13 0.226 0.507 0 1-1.13 0.216 1.13 0.226 0.507 0 1-1.13-0.236 1.13 0.226 0.507 0 1 1.13-0.216z" style="paint-order:markers fill stroke"/></g><g transform="translate(-24.9,-4.6)"><path d="m81.5 90.1a1.13 0.226 0.507 0 1 1.13 0.236 1.13 0.226 0.507 0 1-1.13 0.216 1.13 0.226 0.507 0 1-1.13-0.236 1.13 0.226 0.507 0 1 1.13-0.216z" style="paint-order:markers fill stroke"/><path d="m82.8 87.3a1.13 0.226 0.507 0 1 1.13 0.236 1.13 0.226 0.507 0 1-1.13 0.216 1.13 0.226 0.507 0 1-1.13-0.236 1.13 0.226 0.507 0 1 1.13-0.216z" style="paint-order:markers fill stroke"/><path d="m85.7 60.2c-2.15-0.297-6.39-1.79-5.51-3.74 0.872-1.95-1.72-3.31-0.818-5.63 0.476-1.22 2.88-2.2 1.82-3.2-1.91-1.83 0.561-3.35 1.59-3.2 1.88 0.274 4.25-0.733 6.6-0.5s5.08 1.3 7.27 2.04c2.18 0.738 49.2 5.59 50.3 7.62s0.25 5.37-1.51 7.38c-1.76 2-50.8-2.67-52.9-2.67-2.08 1e-3 -4.68 2.21-6.83 1.91z" style="paint-order:markers fill stroke"/><path d="m82.3 56.3a1.13 0.377 0.507 0 1 1.13 0.387 1.13 0.377 0.507 0 1-1.14 0.367 1.13 0.377 0.507 0 1-1.13-0.387 1.13 0.377 0.507 0 1 1.14-0.367z" style="paint-order:markers fill stroke"/><path d="m81.6 53a1.13 0.226 0.507 0 1 1.13 0.236 1.13 0.226 0.507 0 1-1.13 0.216 1.13 0.226 0.507 0 1-1.13-0.236 1.13 0.226 0.507 0 1 1.13-0.216z" style="paint-order:markers fill stroke"/><ellipse cx="134" cy="75.9" rx="31" ry="29.7" fill="#fff" stroke="#000" stroke-linecap="round" stroke-linejoin="bevel" stroke-width="2.43" style="paint-order:markers fill stroke"/><path d="m138 53.3c2.11 3.66 0.86 8.34-2.8 10.5-3.66 2.11-2.81-1.31-4.92-4.97-2.11-3.66-6.4-6.18-2.73-8.29 3.66-2.11 8.34-0.86 10.5 2.8z" stroke-width="2.73" style="paint-order:markers fill stroke"/><path d="m138 99c-2.11 3.66-6.79 4.92-10.5 2.8-3.66-2.11-0.273-3.08 1.84-6.75s2.15-8.63 5.82-6.51c3.66 2.12 4.92 6.79 2.8 10.5z" stroke-width="2.73" style="paint-order:markers fill stroke"/><ellipse transform="rotate(2.98)" cx="105" cy="68.4" rx=".382" ry="2.66" fill="#fff" stroke="#000" stroke-linecap="round" stroke-linejoin="bevel" stroke-width="3.04" style="paint-order:markers fill stroke"/><g fill="none" stroke="#000" stroke-linecap="round" stroke-linejoin="bevel" stroke-width="2.5"><path d="m109 56.6c-1.46-9.18-5.51-17.8-10.7-25.4" style="paint-order:markers fill stroke"/><path d="m105 88.3c-8.68 7.56-7.89 21.1-16.8 28.5" style="paint-order:markers fill stroke"/><path d="m111 95.5c-5.46 5.76-7.31 14.2-6.45 21.9" style="paint-order:markers fill stroke"/><path d="m115 52.7c-3.74-7.1-5.06-15.3-4.6-23.3" style="paint-order:markers fill stroke"/></g></g><path d="m57.1 45.4a1.13 0.226 0.507 0 1 1.13 0.236 1.13 0.226 0.507 0 1-1.13 0.216 1.13 0.226 0.507 0 1-1.13-0.236 1.13 0.226 0.507 0 1 1.13-0.216z" style="paint-order:markers fill stroke"/><path d="m57.7 42.3a1.13 0.226 0.507 0 1 1.13 0.236 1.13 0.226 0.507 0 1-1.13 0.216 1.13 0.226 0.507 0 1-1.13-0.236 1.13 0.226 0.507 0 1 1.13-0.216z" style="paint-order:markers fill stroke"/></g></svg>
