<svg version="1.1" viewBox="0 0 112 133" xmlns="http://www.w3.org/2000/svg"><g transform="rotate(-15 62.7 65.8)" fill="#fff" stroke="#000" stroke-linecap="round" stroke-linejoin="bevel"><path d="m11.7 56.3c-5.76 0.96-4.74 9.94-6.4 16.1-13.8 8.64-14.8 24-11.3 42.9 6.97 17.5 22 20.5 30.6 21.7 9.48 1.33 20.2-1.71 27.5-7.85 7.85-6.6 12.3-22.1 13.4-27.7 0.956-4.84 5.31-9.26 7.03-11.9 4.68-7.18 7.02-11.9-17-7.91-10-5.86-22.1-12.3-28.9-10.4-1.56-2.04-9.26-15.8-15-14.9z" stop-color="#000000" stroke-width="2.5" style="paint-order:markers fill stroke"/></g><g transform="rotate(-13.5 187 175)" stroke="#000" stroke-width="2.5"><path d="m48.8 45.9c-3.74 0.155-13.1 4.51-9.58-2.62 0.369-5.01 2.98-9.47 5.65-2.88 1.31 1.83 2.63 3.67 3.94 5.5z" fill="none" stop-color="#000000" stroke-linejoin="round" style="paint-order:markers fill stroke"/><path d="m88.2 59.5c2.54 2.75 6.07 12.5 8.63 4.93 3.27-3.8 4.58-8.8-1.96-6.03-2.22 0.368-4.45 0.736-6.67 1.1z" fill="none" stop-color="#000000" stroke-linejoin="round" style="paint-order:markers fill stroke"/><g stroke-linecap="round" stroke-linejoin="bevel"><ellipse cx="45.5" cy="78.4" rx="5.31" ry="5.32" fill="#fff" stop-color="#000000" style="paint-order:markers fill stroke"/><ellipse cx="70.2" cy="87.8" rx="5.31" ry="5.32" fill="#fff" stop-color="#000000" style="paint-order:markers fill stroke"/><ellipse cx="70.7" cy="86.5" rx="2.49" ry="2.49" stop-color="#000000" style="paint-order:markers fill stroke"/><ellipse cx="46.3" cy="76.5" rx="2.49" ry="2.49" stop-color="#000000" style="paint-order:markers fill stroke"/></g></g><ellipse cx="26.6" cy="110" rx="1.16" ry="1.16" fill="#fff" stop-color="#000000" style="paint-order:markers fill stroke"/><ellipse cx="50.8" cy="120" rx="1.16" ry="1.16" fill="#fff" stop-color="#000000" style="paint-order:markers fill stroke"/><g transform="matrix(-.47 -.187 -.187 .47 82.6 88.5)"><ellipse transform="matrix(.707 -.708 .707 .708 0 0)" cx="-31.1" cy="103" rx="1.41" ry="3.42" stop-color="#000000" style="paint-order:markers fill stroke"/><ellipse transform="matrix(-.259 -.966 -.966 .259 0 0)" cx="-107" cy="-28.9" rx="1.41" ry="3.42" stop-color="#000000" style="paint-order:markers fill stroke"/><ellipse transform="matrix(-.966 -.259 -.259 .966 0 0)" cx="-75.7" cy="81.4" rx="1" ry="2.43" stop-color="#000000" style="paint-order:markers fill stroke"/></g></svg>
