<svg version="1.1" viewBox="0 0 112 133" xmlns="http://www.w3.org/2000/svg"><g stroke-width="2.5"><ellipse cx="48.3" cy="76.2" rx="1.16" ry="1.16" fill="none" stop-color="#000000" style="paint-order:markers fill stroke"/><g stroke="#000" stroke-linecap="round" stroke-linejoin="bevel"><g transform="translate(-1.13 -.778)" fill="#fff"><ellipse cx="49.7" cy="24.9" rx="29.4" ry="44.3" stroke="#000" stroke-linecap="round" stroke-linejoin="bevel" stroke-width="2.39" style="paint-order:markers fill stroke"/><path d="m65.8 92.2c13.1-2.06 1.55-7.73 1.63-12.3 8.06-8.41 6.1-19.2 0.315-31.7-7.9-10.9-18.9-10.4-25-9.69-6.81 0.738-13.7 4.72-17.7 10.3-4.3 5.96-4.68 17.5-4.47 21.6 0.183 3.53-5.16 5.42-5.89 7.56-1.99 5.8-2.78 13 13.2 6 3.73 6.95 20.6 12 27.7 3.7 4.14 4.62 10.3 4.6 10.3 4.6z" stop-color="#000000" style="paint-order:markers fill stroke"/></g><g fill="none"><path d="m33.1 64c1.02 0.547 4.45 5.59 5.83 6.7 1.49 1.2 10.4-3.74 11.7-3.75" style="paint-order:markers fill stroke"/><path d="m26.7 54.8c-13.7 3.05-21.2-6.11-28.8-6.95" style="paint-order:markers fill stroke"/><path d="m56.8 57.5c12.4-1.72 23.2 7.31 35.5 6.57" style="paint-order:markers fill stroke"/><path d="m60.6 67.2c7.96 4.16 16.1 7.89 23.9 12.4" style="paint-order:markers fill stroke"/><path d="m27 65.3c-10.4-4.06-21.7-5.76-32.8-5.79" style="paint-order:markers fill stroke"/><ellipse cx="31.6" cy="75.4" rx="4.53" ry="2.04" style="paint-order:markers fill stroke"/><ellipse transform="matrix(.966 .259 .259 -.966 0 0)" cx="67.1" cy="-63.8" rx="4.53" ry="2.04" style="paint-order:markers fill stroke"/></g></g></g><g stroke="#000" stroke-linecap="round" stroke-linejoin="bevel" stroke-width="2.5"><path d="m40.4 71.3c-1.38 1.23-1.38 2.56-1.13 3.73" fill="#fff" style="paint-order:markers fill stroke"/><g fill="none"><circle cx="31.7" cy="75.6" r="1.66" style="paint-order:markers fill stroke"/><circle cx="48.3" cy="78.9" r="1.66" style="paint-order:markers fill stroke"/><ellipse cx="38.4" cy="76.8" rx=".598" ry=".648" style="paint-order:markers fill stroke"/><ellipse cx="40.2" cy="77" rx=".696" ry=".754" style="paint-order:markers fill stroke"/></g><g transform="translate(1.16 8.88)"><path d="m78.6 29.7c-1.87 4.45-3.91 8.74-8.74 8.74s-9.35-3.02-9.13-6.81c1.37-23.2 17-57.6 17.9-55.8 2.06 4.37 24.6-4.68-1e-6 53.9z" fill="#fff" style="paint-order:markers fill stroke"/><path d="m74.8 26.8c-5.97 2.52-12.2-4.46-4.12-4.94 4.77-0.475 8.17 3.31 4.12 4.94z" style="paint-order:markers fill stroke"/><path d="m68.3 31.1c0.614 3.73-4.2 6.33-3.36 1.66 0.381-2.77 2.99-4.18 3.36-1.66z" style="paint-order:markers fill stroke"/><path d="m71.4 32.5c1.22 2.9-2.17 5.94-2.4 2-0.23-2.32 1.61-3.97 2.4-2z" style="paint-order:markers fill stroke"/><path d="m75.7 30c1.47 3.48-2.6 7.14-2.88 2.4-0.277-2.78 1.93-4.76 2.88-2.4z" style="paint-order:markers fill stroke"/><path d="m66 27.3c0.176 3.78-4.91 5.8-3.53 1.26 0.701-2.71 3.46-3.8 3.53-1.26z" style="paint-order:markers fill stroke"/></g><g transform="matrix(-.866 -.5 -.5 .866 94 42.1)"><path d="m78.6 29.7c-1.87 4.45-3.91 8.74-8.74 8.74s-10.7-2.82-8.74-8.74c1.52-4.58 12-46.6 16.8-46.6 4.83 0 25.3-12 0.679 46.6z" fill="#fff" style="paint-order:markers fill stroke"/><path d="m74.8 26.8c-5.97 2.52-12.2-4.46-4.12-4.94 4.77-0.475 8.17 3.31 4.12 4.94z" style="paint-order:markers fill stroke"/><path d="m68.3 31.1c0.614 3.73-4.2 6.33-3.36 1.66 0.381-2.77 2.99-4.18 3.36-1.66z" style="paint-order:markers fill stroke"/><path d="m71.4 32.5c1.22 2.9-2.17 5.94-2.4 2-0.23-2.32 1.61-3.97 2.4-2z" style="paint-order:markers fill stroke"/><path d="m75.7 30c1.47 3.48-2.6 7.14-2.88 2.4-0.277-2.78 1.93-4.76 2.88-2.4z" style="paint-order:markers fill stroke"/><path d="m66 27.3c0.176 3.78-4.91 5.8-3.53 1.26 0.701-2.71 3.46-3.8 3.53-1.26z" style="paint-order:markers fill stroke"/></g></g></svg>
