<svg version="1.1" viewBox="0 0 112 133" xmlns="http://www.w3.org/2000/svg"><g transform="rotate(-20.3 62.7 65.8)" fill="#fff" stroke="#000" stroke-linecap="round" stroke-linejoin="bevel"><ellipse transform="matrix(.746 -.666 .851 .526 0 0)" cx="-80.3" cy="97.6" rx="7.46" ry="6.47" stop-color="#000000" stroke-width="2.85" style="paint-order:markers fill stroke"/><ellipse transform="matrix(.788 -.616 .84 .542 0 0)" cx="-76.5" cy="131" rx="7.62" ry="6.43" stop-color="#000000" stroke-width="2.87" style="paint-order:markers fill stroke"/><path d="m89.9 77.5c0 22.2-13.9 43.6-29.2 41.6-56.7-7.44-37.2-30.3-37.2-52.5s23.1-29.3 38.5-29.3c15.4 1e-6 28 18 28 40.2z" stop-color="#000000" stroke-width="2.5" style="paint-order:markers fill stroke"/><path d="m62.2 39.3c6.88-9.5 10.1-20.1 18.2-21.2 8.1-1.13-5.09 10.3-7.11 24.9" stop-color="#000000" stroke-width="2.01" style="paint-order:markers fill stroke"/><path d="m37.8 38.9c-1.58 3.54-4.69 5.54-7 8.04-10.3 11.1-10.6 24.7-7.06 41.2 15.5 38.9 65.3 17.6 71.5-13.9 6.08-15 4.97-21.3-10.9-15.5-7.08-13.8-25.7-21.5-33.3-18.7-1.56-2.04-6.66-15.6-13.1-1.06z" stop-color="#000000" stroke-width="2.5" style="paint-order:markers fill stroke"/><g fill="none" stroke="#000" stroke-linecap="round" stroke-linejoin="bevel"><path d="m54.2 101c0.657 9.27 13.8 15.2 23.8 18.5" stroke-width="2.9" style="paint-order:markers fill stroke"/><path d="m62 97.8c5.5 8.37 17.8 13.8 28.6 14.3" stroke-width="2.9" style="paint-order:markers fill stroke"/><path d="m31.6 87.2c-11.6-5.5-23.5-10.4-34.4-17.1" stroke-width="2.5" style="paint-order:markers fill stroke"/><path d="m30.3 77.4c-6.68-6.2-13.4-12.3-20.3-18.3" stroke-width="2.5" style="paint-order:markers fill stroke"/></g></g><g transform="matrix(.96 -.241 .328 1.31 -26 -14)" stroke="#000" stroke-width="2.5"><g stroke-linecap="round" stroke-linejoin="bevel"><ellipse cx="45.5" cy="78.4" rx="5.31" ry="5.32" fill="#fff" stop-color="#000000" style="paint-order:markers fill stroke"/><ellipse cx="70.2" cy="87.8" rx="5.31" ry="5.32" fill="#fff" stop-color="#000000" style="paint-order:markers fill stroke"/><ellipse cx="70.7" cy="86.5" rx="2.49" ry="2.49" stop-color="#000000" style="paint-order:markers fill stroke"/><ellipse cx="46.3" cy="76.5" rx="2.49" ry="2.49" stop-color="#000000" style="paint-order:markers fill stroke"/></g></g><ellipse transform="rotate(-14.1)" cx="26" cy="82.9" rx="1.15" ry="1.57" fill="#fff" stop-color="#000000" stroke-width="1.16" style="paint-order:markers fill stroke"/><ellipse transform="rotate(-14.1)" cx="49.9" cy="95.7" rx="1.15" ry="1.57" fill="#fff" stop-color="#000000" stroke-width="1.16" style="paint-order:markers fill stroke"/><ellipse transform="matrix(.707 -.708 .707 .708 0 0)" cx="-31.1" cy="103" rx="1.41" ry="3.42" stop-color="#000000" style="paint-order:markers fill stroke"/><ellipse transform="matrix(-.259 -.966 -.966 .259 0 0)" cx="-107" cy="-28.9" rx="1.41" ry="3.42" stop-color="#000000" style="paint-order:markers fill stroke"/><ellipse transform="matrix(-.966 -.259 -.259 .966 0 0)" cx="-75.7" cy="81.4" rx="1" ry="2.43" stop-color="#000000" style="paint-order:markers fill stroke"/><path d="m47.1 99.1c1.83 2.25 9.79 3.85 13.4 1.64l0.129-0.313" fill="none" stop-color="#000000" stroke="#000" stroke-linecap="round" stroke-linejoin="round" stroke-width="2.5" style="paint-order:markers fill stroke"/></svg>
