<svg version="1.1" viewBox="0 0 112 133" xmlns="http://www.w3.org/2000/svg"><g transform="matrix(.973 -.154 .261 .573 -16.6 40.8)" fill="#fff" stroke="#000" stroke-linecap="round" stroke-linejoin="bevel"><path d="m12.9 33.2c8.57-11.8-12.4-42.7-2.29-44.1 2.02-30.5 21.5 13.8 19 32" stop-color="#000000" stroke-width="2.5" style="paint-order:markers fill stroke"/><ellipse transform="matrix(.914 .405 -.404 .915 0 0)" cx="75.4" cy="82.9" rx="8.96" ry="4.15" stop-color="#000000" stroke-width="2.5" style="paint-order:markers fill stroke"/><ellipse transform="matrix(.996 .0909 -.0907 .996 0 0)" cx="66.1" cy="106" rx="8.96" ry="4.15" stop-color="#000000" stroke-width="2.5" style="paint-order:markers fill stroke"/><path d="m70 46c0 22.2-17.8 59.4-33.1 57.4-33-1.16-51.6-18-37.2-52.5 8.92-21.4 26.9-45.1 42.4-45.1 15.4 1e-6 28 18 28 40.2z" stop-color="#000000" stroke-width="2.5" style="paint-order:markers fill stroke"/><path d="m41.4 29.1c-5.76 0.96-4.74 9.94-6.4 16.1-13.8 8.64-14.8 24-11.3 42.9 6.97 17.5 22 20.5 30.6 21.7 9.48 1.33 20.2-1.71 27.5-7.85 7.85-6.6 12.3-22.1 13.4-27.7 0.956-4.84 5.31-9.26 7.03-11.9 4.68-7.18 7.02-11.9-17-7.91-10-5.86-22.1-12.3-28.9-10.4-1.56-2.04-9.26-15.8-15-14.9z" stop-color="#000000" stroke-width="2.5" style="paint-order:markers fill stroke"/></g><g transform="matrix(1.02 0 0 .163 6.41 70.6)" stroke="#000" stroke-width="2.5"><g stroke-linecap="round" stroke-linejoin="bevel"><ellipse cx="45.5" cy="78.4" rx="5.31" ry="5.32" fill="#fff" stop-color="#000000" style="paint-order:markers fill stroke"/><ellipse cx="70.2" cy="87.8" rx="5.31" ry="5.32" fill="#fff" stop-color="#000000" style="paint-order:markers fill stroke"/><ellipse cx="70.7" cy="86.5" rx="2.49" ry="2.49" stop-color="#000000" style="paint-order:markers fill stroke"/><ellipse cx="46.3" cy="76.5" rx="2.49" ry="2.49" stop-color="#000000" style="paint-order:markers fill stroke"/></g></g><g transform="matrix(.418 0 0 .418 43.3 50)"><ellipse transform="matrix(.707 -.708 .707 .708 0 0)" cx="-31.1" cy="103" rx="1.41" ry="3.42" stop-color="#000000" style="paint-order:markers fill stroke"/><ellipse transform="matrix(-.259 -.966 -.966 .259 0 0)" cx="-107" cy="-28.9" rx="1.41" ry="3.42" stop-color="#000000" style="paint-order:markers fill stroke"/><ellipse transform="matrix(-.966 -.259 -.259 .966 0 0)" cx="-75.7" cy="81.4" rx="1" ry="2.43" stop-color="#000000" style="paint-order:markers fill stroke"/></g><path d="m62.8 91.6c0.679 0.835 3.64 1.43 4.99 0.61l0.0478-0.116" fill="none" stop-color="#000000" stroke="#000" stroke-linecap="round" stroke-linejoin="round" stroke-width=".929" style="paint-order:markers fill stroke"/></svg>
