<svg version="1.1" viewBox="0 0 112 133" xmlns="http://www.w3.org/2000/svg"><g transform="matrix(.417 0 0 .401 -46.2 -38.1)" fill="#fff" stop-color="#000000" stroke="#000" stroke-linecap="round" stroke-linejoin="bevel" stroke-width="8.13" style="-inkscape-stroke:none;font-variation-settings:normal;paint-order:markers fill stroke"><path d="m317 321c0-78.1-48.8-99.9-63.8-99.9s-63.8 21.8-63.8 99.9c0 53 127 53 127 0z" stop-color="#000000" style="font-variation-settings:normal;paint-order:markers fill stroke"/><path d="m317 215c0 31.2-28.5 56.5-63.8 56.5-35.3 0-63.8-25.3-63.8-56.5 0-7.8 1.79-15.2 5.01-22 3.23-6.76-1.2-33.9 4.57-39 5.77-5.12 21.8 2.7 29.4-0.163 16.8-5.67 34-5.75 49.7 0 7.63 2.86 23.6-4.95 29.4 0.163 5.77 5.12 1.35 32.2 4.57 39 3.23 6.76 5.01 14.2 5.01 22z" stop-color="#000000" style="font-variation-settings:normal;paint-order:markers fill stroke"/><path d="m266 361c-3.55 12.1-94.3 26.6-94.3 6.31s51.5-5.39 62.8-17.2m31.6 10.8-0.0806 0.0564" stop-color="#000000" style="font-variation-settings:normal;paint-order:markers fill stroke"/></g></svg>
