<svg version="1.1" viewBox="0 0 112 133" xmlns="http://www.w3.org/2000/svg"><g fill="#fff" stroke="#000"><path d="m47.6 73c-4.38 0.526-9.74-1.75-12.7 1.27-2.82 2.73-1.27 7.6-1.56 11.7-2.14 5.26-1.85 9.06-1.85 14.6 0 12.7 10.7 23.4 24.4 23.4h5.84c13.6 0 24.4-10.7 24.4-23.4 0.166-4.97-0.127-10.7-1.85-14.6-0.273-4.09 1.27-8.96-1.56-11.7-3.12-3.02-8.57-0.76-12.7-1.27-6.53-1.85-16.6-2.14-22.4 0z" stop-color="#000000" stroke-width="2.5" style="paint-order:markers fill stroke"/><path d="m39.5 107c-2.53 4.4-21.6-40.5-27.4-27-5.77 13.5 24.6 39.8 23.7 47.2-2.8 22.4 42.8 13.3 47.1 6.23 2.03-23.5 5.1-21 11.2-27.9 19.3-21.9 11.4-28.1 3.19-22.2-7.22 5.15-16.1 21.8-24 25.2" stop-color="#000000" stroke-width="2.5" style="paint-order:markers fill stroke"/><g transform="matrix(.974 0 0 .974 -4.16 -61)" stroke-width="2.57"><path d="m60 145a5.2 5.2 0 0 1-5.2 5.2 5.2 5.2 0 0 1-5.2-5.2 5.2 5.2 0 0 1 5.2-5.2 5.2 5.2 0 0 1 5.2 5.2z" stop-color="#000000" style="paint-order:markers fill stroke"/><path d="m79 145a5.2 5.2 0 0 1-5.2 5.2 5.2 5.2 0 0 1-5.2-5.2 5.2 5.2 0 0 1 5.2-5.2 5.2 5.2 0 0 1 5.2 5.2z" stop-color="#000000" style="paint-order:markers fill stroke"/><path d="m79 145a5.2 5.2 0 0 1-5.2 5.2 5.2 5.2 0 0 1-5.2-5.2 5.2 5.2 0 0 1 5.2-5.2 5.2 5.2 0 0 1 5.2 5.2z" stop-color="#000000" style="paint-order:markers fill stroke"/><path d="m45.5 138c-2.9 0-5.2 1.6-5.2 3.61 0 1.74 0.71 2.36 2.1 2.5 2.8 0.271 6.2-2.15 6.2-4.17-0.024-0.972-0.49-1.94-3.1-1.94zm39.1 0.233c-2.6 0-3 1.04-3.1 2.01-0.032 1.94 3.2 4.3 6 4.1 1.4-0.118 2.2-0.694 2.2-2.5 0-2.01-2.3-3.61-5.2-3.61z" style="paint-order:markers fill stroke"/></g></g><g><g stroke-width="2.5"><path d="m53.3 79.2a4.29 4.19 0 0 1-4.29 4.19 4.29 4.19 0 0 1-4.29-4.19 4.29 4.19 0 0 1 4.29-4.19 4.29 4.19 0 0 1 4.29 4.19z" stop-color="#000000" style="paint-order:markers fill stroke"/><path d="m71.8 79.2a4.29 4.19 0 0 1-4.29 4.19 4.29 4.19 0 0 1-4.29-4.19 4.29 4.19 0 0 1 4.29-4.19 4.29 4.19 0 0 1 4.29 4.19z" stop-color="#000000" style="paint-order:markers fill stroke"/><path d="m60.1 85.1a0.536 0.487 0 0 1-0.536 0.487 0.536 0.487 0 0 1-0.536-0.487 0.536 0.487 0 0 1 0.536-0.487 0.536 0.487 0 0 1 0.536 0.487z" stop-color="#000000" stroke="#000" style="paint-order:markers fill stroke"/><path d="m58.2 85.1a0.536 0.487 0 0 1-0.536 0.487 0.536 0.487 0 0 1-0.536-0.487 0.536 0.487 0 0 1 0.536-0.487 0.536 0.487 0 0 1 0.536 0.487z" stop-color="#000000" stroke="#000" style="paint-order:markers fill stroke"/><path d="m46.5 76.3a5.07 5.07 0 0 0-0.847 1.27 4.29 0.76 0 0 0 2.44-0.682 4.29 0.76 0 0 0-1.66-0.594zm18.5 0a5.07 5.07 0 0 0-0.847 1.27 4.29 0.76 0 0 0 2.44-0.682 4.29 0.76 0 0 0-1.66-0.594z" fill="#fff" style="paint-order:markers fill stroke"/></g><g transform="matrix(.974 0 0 .974 -4.16 -61)" stroke="#000" stroke-width="2.57"><path d="m71 153c1.5 0.4 1.5 9.4-5.8 10s-7.7-11-5.8-10c3.3 1.9 12 0 12 0z" stop-color="#000000" style="paint-order:markers fill stroke"/><g fill="#fff"><path d="m69 154 0.1 0.73c0.05 0.36-0.25 0.69-0.68 0.73l-1.3 0.13c-0.43 0.042-0.81-0.21-0.86-0.58l-0.1-0.73z" stop-color="#000000" style="paint-order:markers fill stroke"/><path d="m59 158c0.21 1.4 0.7 2.9 1.8 3.9 1.9 1.8 5.7 1.9 8.1 0.57 2-1.1 2.7-3.2 2.9-5-1.8-0.81-5-0.74-6.4 0.25-1.9-1.4-5.2-1.1-6.5 0.21z" stop-color="#000000" style="paint-order:markers fill stroke"/><path d="m65 157 1.1 1.7" stop-color="#000000" style="paint-order:markers fill stroke"/><path d="m64 154-0.081 0.73c-0.04 0.36-0.42 0.63-0.85 0.59l-1.3-0.1c-0.43-0.034-0.74-0.35-0.7-0.72l0.081-0.73z" stop-color="#000000" style="paint-order:markers fill stroke"/></g></g><g transform="matrix(.507 0 0 .565 19.2 -5.11)" fill="none" stroke="#000" stroke-linecap="round" stroke-width="4.67"><path d="m99 170c6.4-0.33 13-2.2 17-6.6" stop-color="#000000" style="paint-order:markers fill stroke"/><path d="m99 170c5.6 5 9.7 6.3 17 6.6" stop-color="#000000" style="paint-order:markers fill stroke"/><path d="m99 170c5.7 2.9 12 4.3 18 2.6" stop-color="#000000" style="paint-order:markers fill stroke"/><path d="m62 170c-11 1-13-2.5-17-6.6" stop-color="#000000" style="paint-order:markers fill stroke"/><path d="m62 170c-3.7 4.7-5.8 6.3-11 6.6" stop-color="#000000" style="paint-order:markers fill stroke"/><path d="m62 170c-6.3 1.6-13 1.8-18-1.3" stop-color="#000000" style="paint-order:markers fill stroke"/><path d="m62 170c-5.4 3.7-11 6-17 4.9" stop-color="#000000" style="paint-order:markers fill stroke"/><path d="m47 149c2.1-3.7 4.4-6 6.8-4.9" stop-color="#000000" style="paint-order:markers fill stroke"/><path d="m109 149c-2.1-3.7-4.4-6-6.8-4.9" stop-color="#000000" style="paint-order:markers fill stroke"/></g></g><g transform="matrix(1.32 0 0 1.32 -134 -29.2)" stroke-opacity="0"><path d="m116 87.9c-0.196 0.731-0.993 0.585-1.72 0.781-0.731 0.196-1.35 0.721-1.88 0.186-0.485-0.755 0.557-3.48 0.967-3.61 0.896-0.0424 2.74 2.22 2.64 2.64z" stop-color="#000000" style="paint-order:markers fill stroke"/><g><ellipse cx="111" cy="86.3" rx=".747" ry="1.21" stop-color="#000000" style="font-variation-settings:normal;paint-order:markers fill stroke"/><ellipse cx="112" cy="84" rx=".747" ry="1.21" stop-color="#000000" style="font-variation-settings:normal;paint-order:markers fill stroke"/><ellipse cx="114" cy="83.4" rx=".747" ry="1.21" stop-color="#000000" style="font-variation-settings:normal;paint-order:markers fill stroke"/><ellipse cx="116" cy="84.8" rx=".747" ry="1.21" stop-color="#000000" style="font-variation-settings:normal;paint-order:markers fill stroke"/></g><g transform="matrix(-1 0 0 1 292 1.93)"><path d="m116 87.9c-0.196 0.731-0.993 0.585-1.72 0.781-0.731 0.196-1.35 0.721-1.88 0.186-0.485-0.755 0.557-3.48 0.967-3.61 0.896-0.0424 2.74 2.22 2.64 2.64z" stop-color="#000000" style="paint-order:markers fill stroke"/><g><ellipse cx="111" cy="86.3" rx=".747" ry="1.21" stop-color="#000000" style="font-variation-settings:normal;paint-order:markers fill stroke"/><ellipse cx="112" cy="84" rx=".747" ry="1.21" stop-color="#000000" style="font-variation-settings:normal;paint-order:markers fill stroke"/><ellipse cx="114" cy="83.4" rx=".747" ry="1.21" stop-color="#000000" style="font-variation-settings:normal;paint-order:markers fill stroke"/><ellipse cx="116" cy="84.8" rx=".747" ry="1.21" stop-color="#000000" style="font-variation-settings:normal;paint-order:markers fill stroke"/></g></g></g></svg>
