<svg version="1.1" viewBox="0 0 112 133" xmlns="http://www.w3.org/2000/svg"><g fill="#fff" stroke="#000" stroke-linecap="round" stroke-linejoin="bevel"><ellipse transform="matrix(.9142 .40526 -.40447 .91455 0 0)" cx="77.05" cy="90.125" rx="8.9638" ry="4.1531" stop-color="#000000" stroke-width="2.5" style="paint-order:markers fill stroke"/><ellipse transform="matrix(.99586 .090936 -.090728 .99588 0 0)" cx="64.734" cy="113.55" rx="8.9622" ry="4.1539" stop-color="#000000" stroke-width="2.5" style="paint-order:markers fill stroke"/><path d="m89.879 77.495c0 22.226-13.932 43.581-29.248 41.573-56.744-7.4398-37.248-30.313-37.248-52.539 0-22.226 23.081-29.277 38.528-29.277 15.446 1e-6 27.968 18.018 27.968 40.243z" stop-color="#000000" stroke-width="2.5" style="paint-order:markers fill stroke"/><path d="m60.709 38.462c8.5738-11.844-7.0744-28.51 3.0245-29.918 10.099-1.4079 13.333 16.358 10.814 34.48" stop-color="#000000" stroke-width="2.5" style="paint-order:markers fill stroke"/><path d="m41.395 29.121c-5.7597 0.96008-4.7433 9.9364-6.4012 16.073-13.789 8.6366-14.827 23.983-11.265 42.883 6.9697 17.511 21.996 20.461 30.571 21.661 9.4773 1.3262 20.192-1.7133 27.489-7.8477 7.8549-6.6037 12.317-22.096 13.428-27.719 0.95561-4.8364 5.309-9.2552 7.0322-11.898 4.6806-7.1772 7.0169-11.949-16.965-7.9149-10.015-5.8563-22.087-12.267-28.867-10.377-1.5593-2.0431-9.2623-15.821-15.022-14.861z" stop-color="#000000" stroke-width="2.5" style="paint-order:markers fill stroke"/></g><g stroke="#000" stroke-width="2.5"><path d="m48.81 45.937c-3.6252 0.64645-7.2505 1.2929-10.876 1.9394 1.1362-4.1255 2.2723-8.2511 3.4085-12.377 2.4891 3.4791 4.9782 6.9582 7.4673 10.437z" fill="none" stop-color="#000000" stroke-linejoin="round" style="paint-order:markers fill stroke"/><path d="m88.168 59.547c2.1068 3.0235 4.2137 6.047 6.3206 9.0705 2.1104-3.7215 4.2209-7.443 6.3313-11.165-4.2173 0.698-8.4346 1.396-12.652 2.094z" fill="none" stop-color="#000000" stroke-linejoin="round" style="paint-order:markers fill stroke"/><g stroke-linecap="round" stroke-linejoin="bevel"><ellipse cx="45.468" cy="78.359" rx="5.3109" ry="5.317" fill="#fff" stop-color="#000000" style="paint-order:markers fill stroke"/><ellipse cx="70.196" cy="87.83" rx="5.3109" ry="5.317" fill="#fff" stop-color="#000000" style="paint-order:markers fill stroke"/><ellipse cx="70.694" cy="86.5" rx="2.4895" ry="2.4923" stop-color="#000000" style="paint-order:markers fill stroke"/><ellipse cx="46.297" cy="76.531" rx="2.4895" ry="2.4923" stop-color="#000000" style="paint-order:markers fill stroke"/></g></g><ellipse cx="48.331" cy="76.24" rx="1.1618" ry="1.1631" fill="#fff" stop-color="#000000" style="paint-order:markers fill stroke"/><ellipse cx="72.506" cy="85.757" rx="1.1618" ry="1.1631" fill="#fff" stop-color="#000000" style="paint-order:markers fill stroke"/><g><ellipse transform="matrix(.7067 -.70752 .7067 .70752 0 0)" cx="-31.126" cy="102.98" rx="1.4091" ry="3.4199" stop-color="#000000" style="paint-order:markers fill stroke"/><ellipse transform="matrix(-.25854 -.966 -.96585 .2591 0 0)" cx="-107.44" cy="-28.917" rx="1.4098" ry="3.4182" stop-color="#000000" style="paint-order:markers fill stroke"/><ellipse transform="matrix(-.96585 -.2591 -.25854 .966 0 0)" cx="-75.709" cy="81.44" rx="1.0009" ry="2.4317" stop-color="#000000" style="paint-order:markers fill stroke"/></g><path d="m45.179 98.777c1.8267 2.2487 9.7943 3.8501 13.422 1.6423l0.12857-0.31334" fill="none" stop-color="#000000" stroke="#000" stroke-linecap="round" stroke-linejoin="round" stroke-width="2.5" style="paint-order:markers fill stroke"/></svg>
