<svg version="1.1" viewBox="0 0 112 133" xmlns="http://www.w3.org/2000/svg"><g transform="matrix(.223 0 0 .223 -8.9 5.02)" fill="#fff" stop-color="#000000" stroke="#000" stroke-linecap="round" stroke-linejoin="bevel" stroke-width="10.8" style="-inkscape-stroke:none;font-variation-settings:normal;paint-order:markers fill stroke"><g stop-color="#000000" style="-inkscape-stroke:none;font-variation-settings:normal;paint-order:markers fill stroke"><path d="m407 457c2.32 9.66 39.9 31.2 42.2 40.9-78.3 20.9-35.4 11.1-42.2-40.9z" stop-color="#000000" style="-inkscape-stroke:none;font-variation-settings:normal;paint-order:markers fill stroke"/><path d="m197 457c-2.32 9.66-39.9 31.2-42.2 40.9 78.3 20.9 35.4 11.1 42.2-40.9z" stop-color="#000000" style="-inkscape-stroke:none;font-variation-settings:normal;paint-order:markers fill stroke"/><path d="m436 435c-99.5 10.6-72.8-25-4.88-32.9 41.3-4.52 110 32 74.8 45.4s-28.6-17-69.9-12.5z" stop-color="#000000" style="-inkscape-stroke:none;font-variation-settings:normal;paint-order:markers fill stroke"/></g><path d="m169 534c-22.3 0-40.4-10.6-40.4-23.7s18.1-23.7 40.4-23.7c55.6 1.76 39.3 46.6 0 47.3z" stop-color="#000000" style="-inkscape-stroke:none;font-variation-settings:normal;paint-order:markers fill stroke"/><g stop-color="#000000" style="-inkscape-stroke:none;font-variation-settings:normal;paint-order:markers fill stroke"><path d="m153 499c-7.03 7.03-7.92 13.7-3.22 25.1 0 0-1.34-8.9-0.745-13.3 0.555-4.12 3.97-11.8 3.97-11.8z" stop-color="#000000" style="-inkscape-stroke:none;font-variation-settings:normal;paint-order:markers fill stroke"/><path d="m167 499c-7.03 7.03-7.92 13.7-3.22 25.1 0 0-1.34-8.9-0.745-13.3 0.555-4.12 3.97-11.8 3.97-11.8z" stop-color="#000000" style="-inkscape-stroke:none;font-variation-settings:normal;paint-order:markers fill stroke"/><path d="m182 499c-7.03 7.03-7.92 13.7-3.22 25.1 0 0-1.34-8.9-0.745-13.3 0.555-4.12 3.97-11.8 3.97-11.8z" stop-color="#000000" style="-inkscape-stroke:none;font-variation-settings:normal;paint-order:markers fill stroke"/></g><path d="m435 534c22.3 0 40.4-10.6 40.4-23.7s-18.1-23.7-40.4-23.7c-55.6 1.76-39.3 46.6 0 47.3z" stop-color="#000000" style="-inkscape-stroke:none;font-variation-settings:normal;paint-order:markers fill stroke"/><g stop-color="#000000" style="-inkscape-stroke:none;font-variation-settings:normal;paint-order:markers fill stroke"><path d="m451 499c7.03 7.03 7.92 13.7 3.22 25.1 0 0 1.34-8.9 0.745-13.3-0.555-4.12-3.97-11.8-3.97-11.8z" stop-color="#000000" style="-inkscape-stroke:none;font-variation-settings:normal;paint-order:markers fill stroke"/><path d="m437 499c7.03 7.03 7.92 13.7 3.22 25.1 0 0 1.34-8.9 0.745-13.3-0.555-4.12-3.97-11.8-3.97-11.8z" stop-color="#000000" style="-inkscape-stroke:none;font-variation-settings:normal;paint-order:markers fill stroke"/><path d="m422 499c7.03 7.03 7.92 13.7 3.22 25.1 0 0 1.34-8.9 0.745-13.3-0.555-4.12-3.97-11.8-3.97-11.8z" stop-color="#000000" style="-inkscape-stroke:none;font-variation-settings:normal;paint-order:markers fill stroke"/><path d="m302 412c-68.7 0-93.5 67.5-93.5 67.5s32.7 15 93.5 15c60.9 0 93.5-15 93.5-15s-24.8-67.5-93.5-67.5z" stop-color="#000000" style="-inkscape-stroke:none;font-variation-settings:normal;paint-order:markers fill stroke"/><path d="m302 278c-82.2 0-119 56.8-119 127 0 35 31.4 103 9.26 118-6.67 4.38 44.4 47.3 57.3 19 12.9-28.4 5.27-79.6 52.9-79.6 47.6 0 40 51.3 52.9 79.6s63.9-14.6 57.3-19c-22.4-14.7 9.29-82.9 9.29-118 0-70-37.2-127-119-127z" stop-color="#000000" style="-inkscape-stroke:none;font-variation-settings:normal;paint-order:markers fill stroke"/><path d="m239 292c-56.7 33.3 33 62.9 62.6 62.9s111-25.9 62.6-62.9c-43.6-18.6-84.7-18.7-125-3e-3z" stop-color="#000000" style="-inkscape-stroke:none;font-variation-settings:normal;paint-order:markers fill stroke"/><ellipse cx="302" cy="189" rx="169" ry="146" stop-color="#000000" style="-inkscape-stroke:none;font-variation-settings:normal;paint-order:markers fill stroke"/><path d="m460 67c-12.1-0.013-25.1 2.18-34.7 3.38-5.64 0.708-12.6 1.39-19.7 2.45a169 146 0 0 1 63.1 89.4c3.72-7.86 6.8-15.9 9.44-22.1 7.46-17.7 22.6-47.8 10.9-63.2-5.81-7.66-17-9.9-29.1-9.9z" stop-color="#000000" style="-inkscape-stroke:none;font-variation-settings:normal;paint-order:markers fill stroke"/><path d="m140 66.9c-12.1 0.0125-23.3 2.24-29.1 9.9-11.6 15.3 3.47 45.4 10.9 63.2 3.33 7.91 7.37 18.6 12.5 28.3a169 146 0.00243 0 1 63.9-94.9c-8.48-1.43-16.9-2.23-23.6-3.07-9.54-1.2-22.6-3.4-34.7-3.38z" stop-color="#000000" style="-inkscape-stroke:none;font-variation-settings:normal;paint-order:markers fill stroke"/><path d="m296 214c-11.1 11.1-34.2 22.5-34.2 22.5l1.2 2.08 39.3-22.7 39.3 22.7 1.2-2.08s-22.4-10.7-34.2-22.5c-7.24-7.24-5.1-30.7-5.1-30.7h-2.4s2.14 23.5-5.1 30.7z" color="#000000" stop-color="#000000" style="-inkscape-stroke:none;font-variation-settings:normal;paint-order:markers fill stroke"/><path d="m302 192c-4.45 0-7.89-6.26-10.1-9.7s-6.56-9.24-4.33-12.7 10-2.98 14.4-2.98 12.2-0.462 14.4 2.98c2.22 3.45-2.11 9.24-4.33 12.7s-5.66 9.7-10.1 9.7z" stop-color="#000000" style="-inkscape-stroke:none;font-variation-settings:normal;paint-order:markers fill stroke"/></g><ellipse cx="243" cy="165" rx="26.6" ry="15.2" stop-color="#000000" style="-inkscape-stroke:none;font-variation-settings:normal;paint-order:markers fill stroke"/><ellipse cx="361" cy="165" rx="26.6" ry="15.2" stop-color="#000000" style="-inkscape-stroke:none;font-variation-settings:normal;paint-order:markers fill stroke"/><g stop-color="#000000" style="-inkscape-stroke:none;font-variation-settings:normal;paint-order:markers fill stroke"><path d="m243 155a14.3 14.3 0 0 0-14.3 14.3 14.3 14.3 0 0 0 4.03 9.91 26.6 15.2 0 0 0 10.3 1.19 26.6 15.2 0 0 0 10.3-1.19 14.3 14.3 0 0 0 4.03-9.91 14.3 14.3 0 0 0-14.3-14.3z" stop-color="#000000" style="-inkscape-stroke:none;font-variation-settings:normal;paint-order:markers fill stroke"/><path d="m361 156a14.3 14.3 0 0 0-14.3 14.3 14.3 14.3 0 0 0 2.86 8.53 26.6 15.2 0 0 0 11.5 1.52 26.6 15.2 0 0 0 11.5-1.52 14.3 14.3 0 0 0 2.86-8.53 14.3 14.3 0 0 0-14.3-14.3z" stop-color="#000000" style="-inkscape-stroke:none;font-variation-settings:normal;paint-order:markers fill stroke"/><path d="m250 163a4.91 4.91 0 0 1-4.06-5.63 4.91 4.91 0 0 1 1.9-3.13 9.12 5.2 9.22 0 1 3.55 0.164 9.12 5.2 9.22 0 1 3.42 0.967 4.91 4.91 0 0 1 0.817 3.57 4.91 4.91 0 0 1-5.63 4.06z" stop-color="#000000" style="-inkscape-stroke:none;font-variation-settings:normal;paint-order:markers fill stroke"/><path d="m369 163a4.91 4.91 0 0 1-4.06-5.63 4.91 4.91 0 0 1 1.9-3.13 9.12 5.2 9.22 0 1 3.55 0.164 9.12 5.2 9.22 0 1 3.42 0.967 4.91 4.91 0 0 1 0.817 3.57 4.91 4.91 0 0 1-5.63 4.06z" stop-color="#000000" style="-inkscape-stroke:none;font-variation-settings:normal;paint-order:markers fill stroke"/></g><path d="m222 558c-22.3 0-40.4-10.6-40.4-23.7s18.1-23.7 40.4-23.7c55.6 1.76 39.3 46.6 0 47.3z" stop-color="#000000" style="-inkscape-stroke:none;font-variation-settings:normal;paint-order:markers fill stroke"/><g stop-color="#000000" style="-inkscape-stroke:none;font-variation-settings:normal;paint-order:markers fill stroke"><path d="m200 529c-7.03 7.03-7.92 13.7-3.22 25.1 0 0-1.34-8.9-0.745-13.3 0.555-4.12 3.97-11.8 3.97-11.8z" stop-color="#000000" style="-inkscape-stroke:none;font-variation-settings:normal;paint-order:markers fill stroke"/><path d="m214 529c-7.03 7.03-7.92 13.7-3.22 25.1 0 0-1.34-8.9-0.745-13.3 0.555-4.12 3.97-11.8 3.97-11.8z" stop-color="#000000" style="-inkscape-stroke:none;font-variation-settings:normal;paint-order:markers fill stroke"/><path d="m229 529c-7.03 7.03-7.92 13.7-3.22 25.1 0 0-1.34-8.9-0.745-13.3 0.555-4.12 3.97-11.8 3.97-11.8z" stop-color="#000000" style="-inkscape-stroke:none;font-variation-settings:normal;paint-order:markers fill stroke"/></g><path d="m382 558c22.3 0 40.4-10.6 40.4-23.7s-18.1-23.7-40.4-23.7c-55.6 1.76-39.3 46.6 0 47.3z" stop-color="#000000" style="-inkscape-stroke:none;font-variation-settings:normal;paint-order:markers fill stroke"/><g stop-color="#000000" style="-inkscape-stroke:none;font-variation-settings:normal;paint-order:markers fill stroke"><path d="m405 529c7.03 7.03 7.92 13.7 3.22 25.1 0 0 1.34-8.9 0.745-13.3-0.555-4.12-3.97-11.8-3.97-11.8z" stop-color="#000000" style="-inkscape-stroke:none;font-variation-settings:normal;paint-order:markers fill stroke"/><path d="m390 529c7.03 7.03 7.92 13.7 3.22 25.1 0 0 1.34-8.9 0.745-13.3-0.555-4.12-3.97-11.8-3.97-11.8z" stop-color="#000000" style="-inkscape-stroke:none;font-variation-settings:normal;paint-order:markers fill stroke"/><path d="m376 529c7.03 7.03 7.92 13.7 3.22 25.1 0 0 1.34-8.9 0.745-13.3-0.555-4.12-3.97-11.8-3.97-11.8z" stop-color="#000000" style="-inkscape-stroke:none;font-variation-settings:normal;paint-order:markers fill stroke"/></g></g></svg>
